<svg xmlns="http://www.w3.org/2000/svg" viewBox="0 0 512 512" style="enable-background:new 0 0 512 512" xml:space="preserve"><path style="fill:#eacc8f" d="M504.5 26.914v191.229H415.195V26.914c0-10.722 8.692-19.414 19.414-19.414h50.477c10.722 0 19.414 8.692 19.414 19.414z"/><path style="fill:#d8b77c" d="M463.73 26.914v191.229h-48.535V26.914c0-10.722 8.692-19.414 19.414-19.414h48.535c-10.722 0-19.414 8.692-19.414 19.414z"/><path style="fill:#f9e1a2" d="M463.73 7.5c-10.722 0-19.414 8.692-19.414 19.414v396.403c0 6.237-5.056 11.293-11.293 11.293a11.29 11.29 0 0 1-9.511-5.205l-1.213-1.896c-7.001-10.938-22.981-10.938-29.981 0l-1.213 1.896a11.293 11.293 0 0 1-9.511 5.205h-3.171a11.29 11.29 0 0 1-9.511-5.205c-7.001-10.938-22.981-10.938-29.981 0a11.293 11.293 0 0 1-9.511 5.205h-3.171a11.29 11.29 0 0 1-9.511-5.205c-7.001-10.938-22.981-10.938-29.981 0a11.293 11.293 0 0 1-9.511 5.205h-3.171a11.29 11.29 0 0 1-9.511-5.205l-1.213-1.896c-7.001-10.938-22.981-10.938-29.981 0l-1.213 1.896a11.293 11.293 0 0 1-9.511 5.205c-6.237 0-11.293-5.056-11.293-11.293V26.914c0-10.722 8.692-19.414 19.414-19.414H463.73z"/><path style="fill:#f24f43" d="m267.228 355.126-14.33 93.144c-4.977 32.35-32.812 56.23-65.542 56.23-17.354 0-33.144-6.674-44.963-17.585-11.819 10.911-27.609 17.585-44.963 17.585-32.73 0-60.565-23.88-65.542-56.23l-14.33-93.144c-5.192-33.747 20.918-64.181 55.062-64.181h7.558c24.712 0 46.916 10.73 62.215 27.782 15.299-17.052 37.503-27.782 62.215-27.782h7.558c34.144 0 60.254 30.435 55.062 64.181z"/><path style="fill:#ed322e" d="m267.228 355.126-14.33 93.144c-4.977 32.35-32.812 56.23-65.542 56.23a66.96 66.96 0 0 1-6.946-.37c21.558-10.828 37.477-31.574 41.357-56.793l16.547-107.553c2.652-17.235-1.777-33.715-10.942-46.744 26.277 7.42 44.244 33.569 39.856 62.086z"/><path style="fill:#8eb55e" d="M121.07 204.069c0 31.362-25.423 56.785-56.785 56.785-31.361 0-56.785-25.423-56.785-56.785v-56.785h56.785c31.361 0 56.785 25.423 56.785 56.785z"/><path d="M364.014 206.494c0-4.143 3.357-7.5 7.5-7.5h7.061v-7.061c0-4.143 3.357-7.5 7.5-7.5s7.5 3.357 7.5 7.5v7.061h7.061c4.143 0 7.5 3.357 7.5 7.5s-3.357 7.5-7.5 7.5h-7.061v7.061c0 4.143-3.357 7.5-7.5 7.5s-7.5-3.357-7.5-7.5v-7.061h-7.061a7.499 7.499 0 0 1-7.5-7.5zm-55.596 16.768h-58.242c-4.142 0-7.5 3.357-7.5 7.5s3.358 7.5 7.5 7.5h58.242c4.143 0 7.5-3.357 7.5-7.5s-3.357-7.5-7.5-7.5zm31.328 147.766v.971c0 4.143 3.357 7.5 7.5 7.5s7.5-3.357 7.5-7.5v-.971c0-4.143-3.357-7.5-7.5-7.5s-7.5 3.358-7.5 7.5zM211.348 269.807a7.5 7.5 0 0 0 7.5-7.5V26.914c0-6.569 5.345-11.914 11.914-11.914h147.224c4.143 0 7.5-3.357 7.5-7.5s-3.357-7.5-7.5-7.5H230.762c-14.84 0-26.914 12.073-26.914 26.914v235.393a7.5 7.5 0 0 0 7.5 7.5zm194.14 109.692c4.143 0 7.5-3.357 7.5-7.5v-.971c0-4.143-3.357-7.5-7.5-7.5s-7.5 3.357-7.5 7.5v.971a7.5 7.5 0 0 0 7.5 7.5zm-19.414-263.015a7.499 7.499 0 0 0-7.5 7.5v7.061h-7.061c-4.143 0-7.5 3.357-7.5 7.5s3.357 7.5 7.5 7.5h7.061v7.061c0 4.143 3.357 7.5 7.5 7.5s7.5-3.357 7.5-7.5v-7.061h7.061c4.143 0 7.5-3.357 7.5-7.5s-3.357-7.5-7.5-7.5h-7.061v-7.061a7.5 7.5 0 0 0-7.5-7.5zm7.5 172.52v-7.061h7.061c4.143 0 7.5-3.357 7.5-7.5s-3.357-7.5-7.5-7.5h-7.061v-7.061c0-4.143-3.357-7.5-7.5-7.5s-7.5 3.357-7.5 7.5v7.061h-7.061c-4.143 0-7.5 3.357-7.5 7.5s3.357 7.5 7.5 7.5h7.061v7.061c0 4.143 3.357 7.5 7.5 7.5s7.5-3.358 7.5-7.5zm-15-232.969v7.061h-7.061c-4.143 0-7.5 3.357-7.5 7.5s3.357 7.5 7.5 7.5h7.061v7.061c0 4.143 3.357 7.5 7.5 7.5s7.5-3.357 7.5-7.5v-7.061h7.061c4.143 0 7.5-3.357 7.5-7.5s-3.357-7.5-7.5-7.5h-7.061v-7.061c0-4.143-3.357-7.5-7.5-7.5s-7.5 3.358-7.5 7.5zm-9.707 314.993v.971c0 4.143 3.357 7.5 7.5 7.5s7.5-3.357 7.5-7.5v-.971c0-4.143-3.357-7.5-7.5-7.5s-7.5 3.358-7.5 7.5zM485.086 0h-80.245c-4.143 0-7.5 3.357-7.5 7.5s3.357 7.5 7.5 7.5H439.6a26.759 26.759 0 0 0-2.783 11.914v396.402a3.797 3.797 0 0 1-3.793 3.793c-1.3 0-2.493-.653-3.194-1.748l-1.213-1.896c-4.674-7.302-12.64-11.661-21.309-11.661-8.668 0-16.634 4.359-21.309 11.663l-1.211 1.894a3.776 3.776 0 0 1-3.195 1.749h-3.171c-1.3 0-2.494-.653-3.194-1.748-4.674-7.302-12.64-11.661-21.309-11.661-8.668 0-16.634 4.359-21.308 11.662a3.776 3.776 0 0 1-3.194 1.747h-3.171c-1.3 0-2.494-.653-3.194-1.748-4.673-7.302-12.639-11.661-21.308-11.661s-16.635 4.359-21.307 11.66a3.776 3.776 0 0 1-3.195 1.749c-4.143 0-7.5 3.357-7.5 7.5s3.357 7.5 7.5 7.5a18.715 18.715 0 0 0 15.829-8.662c1.93-3.017 5.091-4.747 8.673-4.747s6.743 1.73 8.674 4.746a18.708 18.708 0 0 0 15.828 8.663h3.171c6.44 0 12.358-3.238 15.829-8.662 1.931-3.017 5.092-4.747 8.673-4.747 3.582 0 6.743 1.73 8.674 4.746a18.71 18.71 0 0 0 15.829 8.663h3.171a18.715 18.715 0 0 0 15.83-8.664l1.212-1.895c1.931-3.017 5.092-4.747 8.673-4.747 3.582 0 6.743 1.73 8.675 4.747l1.213 1.896a18.708 18.708 0 0 0 15.828 8.663c10.362 0 18.793-8.431 18.793-18.793V26.914c0-6.569 5.345-11.914 11.914-11.914h21.355C491.655 15 497 20.345 497 26.914v183.729h-28.416c-4.143 0-7.5 3.357-7.5 7.5s3.357 7.5 7.5 7.5H504.5c4.143 0 7.5-3.357 7.5-7.5V26.914C512 12.073 499.927 0 485.086 0zM327.832 63.096h-77.656c-4.142 0-7.5 3.357-7.5 7.5s3.358 7.5 7.5 7.5h77.656c4.143 0 7.5-3.357 7.5-7.5s-3.357-7.5-7.5-7.5zm-77.656 39.267h38.828c4.143 0 7.5-3.357 7.5-7.5s-3.357-7.5-7.5-7.5h-38.828c-4.142 0-7.5 3.357-7.5 7.5s3.358 7.5 7.5 7.5zm24.466 253.904-14.33 93.145a73.865 73.865 0 0 1-24.893 44.798A73.864 73.864 0 0 1 187.356 512a73.636 73.636 0 0 1-23.737-3.905 7.502 7.502 0 0 1-4.689-9.515 7.499 7.499 0 0 1 9.514-4.688A58.643 58.643 0 0 0 187.356 497c29.236 0 53.684-20.974 58.129-49.87l14.33-93.145a48.155 48.155 0 0 0-11.06-38.721 48.157 48.157 0 0 0-36.59-16.819h-7.558c-21.57 0-42.211 9.218-56.632 25.291a7.5 7.5 0 0 1-11.166 0c-14.42-16.073-35.062-25.291-56.632-25.291H72.62a48.157 48.157 0 0 0-36.59 16.819 48.157 48.157 0 0 0-11.06 38.721L39.3 447.13C43.746 476.026 68.193 497 97.43 497a58.627 58.627 0 0 0 39.876-15.596 7.501 7.501 0 0 1 10.175 11.022C133.808 505.049 116.033 512 97.43 512a73.859 73.859 0 0 1-48.062-17.791 73.865 73.865 0 0 1-24.893-44.798l-14.33-93.145a63.142 63.142 0 0 1 14.5-50.77 63.141 63.141 0 0 1 47.974-22.052h7.558c19.955 0 39.245 6.588 54.947 18.46l.155-16.234-31.171-31.172c-10.958 8.673-24.796 13.854-39.824 13.854C28.838 268.354 0 239.516 0 204.068v-56.785a7.5 7.5 0 0 1 7.5-7.5h56.785c35.447 0 64.285 28.838 64.285 64.285 0 15.027-5.182 28.866-13.854 39.824l20.766 20.766.418-43.675c0-14.77 12.073-26.843 26.914-26.843s26.914 12.073 26.914 26.914c0 4.143-3.358 7.5-7.5 7.5s-7.5-3.357-7.5-7.5c0-6.569-5.345-11.914-11.914-11.914s-11.914 5.345-11.914 11.914l-.77 80.499c15.617-11.65 34.722-18.108 54.479-18.108h7.558a63.145 63.145 0 0 1 47.975 22.052 63.152 63.152 0 0 1 14.5 50.77zM113.57 204.068c0-27.176-22.109-49.285-49.285-49.285H15v49.285c0 27.176 22.109 49.285 49.285 49.285a49.02 49.02 0 0 0 29.127-9.551L37.14 187.53a7.5 7.5 0 0 1 10.606-10.607l56.273 56.273a49.022 49.022 0 0 0 9.551-29.128zM39.793 349.195c0 4.143 3.358 7.5 7.5 7.5s7.5-3.357 7.5-7.5c0-11.922 9.699-21.621 21.621-21.621 4.142 0 7.5-3.357 7.5-7.5s-3.358-7.5-7.5-7.5c-20.193 0-36.621 16.428-36.621 36.621zm210.383-178.882h38.828c4.143 0 7.5-3.357 7.5-7.5s-3.357-7.5-7.5-7.5h-38.828c-4.142 0-7.5 3.357-7.5 7.5s3.358 7.5 7.5 7.5zm85.156 36.181c0-4.143-3.357-7.5-7.5-7.5h-77.656c-4.142 0-7.5 3.357-7.5 7.5s3.358 7.5 7.5 7.5h77.656c4.143 0 7.5-3.357 7.5-7.5zm-7.5-75.449h-77.656c-4.142 0-7.5 3.357-7.5 7.5s3.358 7.5 7.5 7.5h77.656c4.143 0 7.5-3.357 7.5-7.5s-3.357-7.5-7.5-7.5zm-19.414 135.898h-58.242c-4.142 0-7.5 3.357-7.5 7.5s3.358 7.5 7.5 7.5h58.242c4.143 0 7.5-3.357 7.5-7.5s-3.357-7.5-7.5-7.5z"/></svg>