<?xml version="1.0" standalone="no"?>
<!DOCTYPE svg PUBLIC "-//W3C//DTD SVG 20010904//EN"
 "http://www.w3.org/TR/2001/REC-SVG-20010904/DTD/svg10.dtd">
<svg version="1.0" xmlns="http://www.w3.org/2000/svg"
 width="700.000000pt" height="700.000000pt" viewBox="0 0 700.000000 700.000000"
 preserveAspectRatio="xMidYMid meet">
<metadata>
Created by potrace 1.14, written by Peter Selinger 2001-2017
</metadata>
<g transform="translate(0.000000,700.000000) scale(0.100000,-0.100000)"
fill="#000000" stroke="none">
<path d="M3059 6986 c-99 -26 -183 -97 -236 -198 l-28 -53 -3 -1675 c-2 -1315
0 -1680 10 -1698 14 -27 57 -52 88 -52 33 0 75 26 88 55 9 20 12 414 12 1658
l0 1633 23 44 c12 25 37 55 56 67 l34 23 1034 0 c1113 0 1080 -2 1117 51 27
40 21 86 -18 125 l-34 34 -1048 -1 c-798 0 -1060 -3 -1095 -13z"/>
<path d="M5470 6973 c-62 -56 -42 -150 37 -172 22 -6 138 -11 270 -11 l232 0
-17 -37 c-16 -35 -17 -226 -20 -2797 -2 -2572 -3 -2761 -19 -2778 -26 -29 -53
-18 -102 45 -82 104 -188 154 -306 145 -108 -9 -196 -60 -265 -154 -37 -49
-44 -54 -80 -54 -35 0 -46 7 -107 68 -90 91 -151 116 -273 110 -105 -5 -164
-34 -245 -120 -47 -50 -60 -58 -91 -58 -32 0 -45 8 -98 63 -88 92 -136 112
-261 112 -124 0 -171 -21 -260 -112 -34 -35 -69 -63 -79 -63 -26 0 -74 -28
-86 -49 -20 -39 -12 -91 19 -122 25 -25 37 -29 83 -29 67 0 125 27 169 75 68
76 91 94 124 101 68 12 96 -3 185 -101 51 -57 99 -75 200 -75 111 0 166 25
233 103 53 62 97 83 154 72 27 -5 54 -25 107 -79 82 -83 113 -96 228 -96 112
0 175 33 239 126 36 52 73 74 129 74 54 0 91 -20 122 -67 64 -95 127 -133 228
-133 104 0 182 48 233 144 l22 41 5 2772 5 2772 21 28 c11 15 36 38 55 51 33
23 39 23 234 20 188 -3 202 -4 231 -25 68 -49 64 45 64 -1367 l0 -1276 -209 0
c-197 0 -210 -1 -235 -21 -52 -41 -56 -107 -8 -154 l25 -25 286 0 c312 0 316
1 340 57 8 21 11 377 9 1388 l-3 1360 -29 60 c-38 76 -110 149 -184 183 l-57
27 -612 3 -612 3 -31 -28z"/>
<path d="M5236 6325 c-46 -24 -55 -44 -56 -117 l0 -68 -54 0 c-98 0 -146 -35
-146 -104 1 -72 45 -106 137 -106 l63 0 0 -68 c0 -55 4 -72 21 -91 47 -50 111
-50 154 1 21 25 25 40 25 93 l0 63 71 4 c65 3 74 6 100 36 20 22 29 43 29 67
0 24 -9 45 -29 67 -26 30 -35 33 -100 36 l-71 4 0 64 c0 55 -4 68 -27 94 -34
37 -78 46 -117 25z"/>
<path d="M3384 6130 c-65 -26 -83 -109 -35 -162 l29 -33 561 -3 c488 -2 565
-1 591 13 36 18 52 47 52 90 0 43 -16 72 -52 90 -25 13 -107 15 -577 14 -301
0 -558 -4 -569 -9z"/>
<path d="M3393 5803 c-60 -12 -94 -111 -55 -159 33 -42 50 -44 347 -44 236 0
291 3 315 15 37 19 50 43 50 92 0 31 -7 46 -31 69 l-30 29 -287 1 c-158 1
-297 0 -309 -3z"/>
<path d="M5228 5395 c-39 -22 -48 -45 -48 -119 l0 -66 -61 0 c-95 0 -138 -33
-139 -106 0 -69 48 -104 146 -104 l54 0 0 -68 c0 -55 4 -72 21 -91 31 -33 66
-44 105 -31 54 18 74 52 74 125 l0 63 71 4 c65 3 74 6 100 36 39 44 39 90 0
134 -26 30 -35 33 -100 36 l-71 4 0 64 c0 55 -4 68 -27 94 -34 37 -85 47 -125
25z"/>
<path d="M3368 5193 c-55 -35 -64 -105 -19 -155 l29 -33 549 -3 c365 -2 560 0
584 8 86 24 98 144 19 185 -25 13 -108 15 -582 15 -497 -1 -556 -2 -580 -17z"/>
<path d="M64 5081 c-12 -5 -31 -22 -43 -37 -21 -26 -21 -32 -21 -464 0 -348 3
-455 15 -525 31 -177 117 -338 251 -470 297 -294 757 -336 1105 -101 l54 36
212 -212 213 -213 0 -107 c0 -60 -2 -108 -4 -108 -2 0 -42 24 -90 54 -103 65
-227 118 -356 153 -84 23 -119 26 -305 30 -188 5 -219 3 -298 -16 -170 -40
-307 -121 -433 -254 -151 -158 -234 -364 -234 -579 0 -105 200 -1417 235
-1540 46 -165 132 -307 259 -433 156 -155 328 -242 551 -282 276 -48 609 47
816 234 l37 34 63 -41 c34 -22 66 -40 71 -40 4 0 8 -21 8 -46 0 -37 5 -51 28
-73 71 -72 403 -101 595 -53 192 48 355 141 488 279 122 127 200 257 248 418
11 39 69 378 127 755 113 735 121 813 91 956 -71 335 -336 600 -671 671 -96
20 -384 19 -497 -3 -168 -32 -319 -91 -454 -178 -38 -24 -70 -44 -71 -43 -1 1
1 259 5 572 6 564 6 570 28 605 68 110 231 102 284 -14 10 -23 19 -56 19 -74
0 -50 46 -92 100 -92 33 0 48 6 71 29 25 26 29 37 29 85 0 118 -76 243 -185
302 -188 103 -417 30 -511 -161 l-29 -60 -7 -295 c-4 -162 -9 -316 -10 -343
l-3 -47 -138 137 -137 138 36 54 c52 77 100 184 125 276 31 114 31 316 0 430
-84 314 -320 550 -636 637 -76 21 -101 22 -545 25 -256 1 -475 -2 -486 -6z
m1016 -230 c114 -40 181 -82 266 -166 141 -139 199 -278 199 -475 0 -92 -5
-130 -23 -190 -23 -73 -86 -200 -100 -200 -4 0 -185 178 -402 395 l-396 395
-43 0 c-60 0 -101 -41 -101 -101 l0 -43 398 -399 c451 -452 418 -399 287 -462
-379 -180 -831 32 -935 441 -18 70 -20 112 -20 456 l0 379 403 -3 c389 -4 404
-5 467 -27z"/>
<path d="M3384 4870 c-76 -31 -85 -142 -14 -183 24 -15 65 -17 315 -17 235 0
291 3 315 15 76 39 66 154 -17 186 -30 11 -570 11 -599 -1z"/>
<path d="M5228 4464 c-39 -20 -48 -43 -48 -118 l0 -66 -60 0 c-66 0 -113 -18
-130 -49 -19 -37 -12 -89 18 -122 25 -28 35 -32 100 -37 l72 -5 0 -66 c0 -60
3 -70 28 -93 43 -42 100 -41 143 1 26 27 29 36 29 95 l0 66 50 0 c133 0 196
96 116 176 -32 32 -38 34 -100 34 l-66 0 0 66 c0 62 -2 68 -34 100 -38 38 -73
43 -118 18z"/>
<path d="M3375 4268 c-62 -33 -73 -107 -26 -160 l29 -33 544 -3 c299 -2 557 0
574 3 48 9 84 50 84 97 0 50 -13 74 -50 93 -25 13 -108 15 -582 15 -383 -1
-559 -4 -573 -12z"/>
<path d="M3384 3940 c-65 -26 -83 -109 -35 -162 l29 -33 441 0 441 0 27 28
c40 39 40 105 0 144 l-27 28 -428 2 c-235 1 -437 -2 -448 -7z"/>
<path d="M5223 3530 c-35 -21 -42 -37 -45 -120 l-3 -55 -74 -6 c-65 -5 -77 -9
-98 -33 -15 -18 -23 -40 -23 -65 0 -71 56 -111 158 -111 l42 0 0 -66 c0 -59 3
-68 29 -95 23 -23 38 -29 71 -29 33 0 48 6 71 29 26 26 29 36 29 94 l0 64 66
6 c79 6 115 28 128 80 12 46 -7 93 -45 112 -15 8 -55 15 -89 15 l-60 0 0 60
c0 71 -12 101 -50 123 -37 22 -68 21 -107 -3z"/>
<path d="M3368 3334 c-78 -42 -59 -159 30 -184 50 -14 794 -13 845 1 26 7 44
21 57 42 30 48 26 83 -14 123 l-34 34 -429 0 c-358 -1 -432 -3 -455 -16z"/>
<path d="M4703 2020 c-48 -20 -72 -105 -44 -158 31 -59 120 -65 165 -11 39 46
36 101 -8 145 -35 35 -68 42 -113 24z"/>
<path d="M5080 2003 c-81 -73 -19 -208 86 -189 50 10 79 49 79 108 0 43 -4 53
-33 79 -43 39 -90 39 -132 2z"/>
<path d="M5473 1995 c-33 -33 -35 -39 -30 -81 9 -85 87 -127 154 -85 89 55 49
201 -54 201 -27 0 -43 -8 -70 -35z"/>
</g>
</svg>
